<svg xmlns="http://www.w3.org/2000/svg" viewBox="0 0 42 34" width="42" height="34">
	<defs>
		<linearGradient id="grd1" gradientUnits="userSpaceOnUse"  x1="4.55" y1="0.026" x2="37.525" y2="33.002">
			<stop offset="0" stop-color="#ff3b49"  />
			<stop offset="1" stop-color="#ff3b49"  />
		</linearGradient>
	</defs>
	<style>
		tspan { white-space:pre }
		.shp0 { fill: url(#grd1) } 
	</style>
	<path id="Diamond" class="shp0" d="M41.08 10.45C41.08 10.41 41.06 10.4 41.05 10.37C41.04 10.3 41.06 10.23 41.03 10.16L36.91 0.47C36.79 0.2 36.53 0.03 36.24 0.03L5.84 0.03C5.55 0.03 5.28 0.2 5.17 0.47L1.05 10.16C1.02 10.23 1.03 10.3 1.02 10.37C1.02 10.4 0.99 10.41 0.99 10.45C0.99 10.46 1.01 10.47 1.01 10.49C1.02 10.65 1.06 10.8 1.17 10.92L20.49 32.75C20.51 32.77 20.54 32.77 20.55 32.79C20.61 32.83 20.65 32.87 20.71 32.91C20.72 32.91 20.73 32.94 20.75 32.94C20.84 32.98 20.94 33 21.03 33C21.13 33 21.23 32.98 21.33 32.94C21.35 32.94 21.35 32.91 21.36 32.9C21.42 32.87 21.47 32.83 21.52 32.79C21.54 32.77 21.56 32.77 21.58 32.75L40.9 10.92C41.01 10.8 41.06 10.65 41.07 10.49C41.07 10.47 41.08 10.46 41.08 10.45ZM25.96 1.47L29.52 9.73L12.56 9.73L16.11 1.47L25.96 1.47ZM29.51 11.17L21.03 30.47L12.57 11.17L29.51 11.17ZM10.98 11.17L18.51 28.34L3.32 11.17L10.98 11.17ZM31.09 11.17L38.75 11.17L23.56 28.34L31.09 11.17ZM39.27 9.73L31.09 9.73L27.54 1.47L35.76 1.47L39.27 9.73ZM6.32 1.47L14.54 1.47L10.98 9.73L2.81 9.73L6.32 1.47Z" />
</svg>