<svg xmlns="http://www.w3.org/2000/svg" viewBox="0 0 44 34" width="44" height="34">
	<defs>
		<linearGradient id="grd1" gradientUnits="userSpaceOnUse"  x1="5.503" y1="0.996" x2="38.495" y2="33.989">
			<stop offset="0" stop-color="#ff3b49"  />
			<stop offset="1" stop-color="#ff3b49"  />
		</linearGradient>
	</defs>
	<style>
		tspan { white-space:pre }
		.shp0 { fill: url(#grd1) } 
	</style>
	<path id="Truck 2" class="shp0" d="M43.95 17.45L43.95 7.04C43.95 6.61 43.6 6.26 43.16 6.26L28.12 6.26L28.12 1.77C28.12 1.34 27.77 1 27.34 1L0.8 1C0.36 1 0.01 1.34 0.01 1.77L0.01 27.97C0.01 28.4 0.36 28.75 0.8 28.75L3.46 28.75C3.9 28.75 4.25 28.4 4.25 27.97C4.25 27.54 3.9 27.19 3.46 27.19L1.58 27.19L1.58 2.55L26.55 2.55L26.55 7.04L26.55 22.14C26.55 22.57 26.9 22.92 27.34 22.92C27.77 22.92 28.12 22.57 28.12 22.14L28.12 7.82L34.46 7.82L34.46 17.54C34.46 17.97 34.82 18.32 35.25 18.32L42.38 18.32L42.38 27.19L40.53 27.19C40.09 27.19 39.74 27.54 39.74 27.97C39.74 28.4 40.09 28.75 40.53 28.75L43.16 28.75C43.6 28.75 43.95 28.4 43.95 27.97L43.95 17.63C43.96 17.59 43.99 17.57 43.99 17.54C43.99 17.5 43.96 17.48 43.95 17.45ZM42.38 16.76L36.04 16.76L36.04 7.82L42.38 7.82L42.38 16.76ZM32.6 21.95C29.24 21.95 26.51 24.65 26.51 27.97C26.51 31.29 29.24 33.99 32.6 33.99C35.95 33.99 38.68 31.29 38.68 27.97C38.68 24.65 35.95 21.95 32.6 21.95ZM32.6 32.43C30.11 32.43 28.09 30.43 28.09 27.97C28.09 25.51 30.11 23.51 32.6 23.51C35.08 23.51 37.11 25.51 37.11 27.97C37.11 30.43 35.08 32.43 32.6 32.43ZM11.4 21.95C8.04 21.95 5.31 24.65 5.31 27.97C5.31 31.29 8.04 33.99 11.4 33.99C14.75 33.99 17.49 31.29 17.49 27.97C17.49 24.65 14.75 21.95 11.4 21.95ZM11.4 32.43C8.91 32.43 6.88 30.43 6.88 27.97C6.88 25.51 8.91 23.51 11.4 23.51C13.88 23.51 15.91 25.51 15.91 27.97C15.91 30.43 13.88 32.43 11.4 32.43ZM24.67 27.19L19.33 27.19C18.89 27.19 18.54 27.54 18.54 27.97C18.54 28.4 18.89 28.75 19.33 28.75L24.67 28.75C25.1 28.75 25.45 28.4 25.45 27.97C25.45 27.54 25.1 27.19 24.67 27.19Z" />
</svg>